<?xml version="1.0" encoding="UTF-8" standalone="no"?><svg xmlns="http://www.w3.org/2000/svg" xmlns:xlink="http://www.w3.org/1999/xlink" style="isolation:isolate" viewBox="0 0 512 512" width="512pt" height="512pt"><defs><clipPath id="_clipPath_CMHENNQKiB2flYyfb6ZwJOKov3DXlRgK"><rect width="512" height="512"/></clipPath></defs><g clip-path="url(#_clipPath_CMHENNQKiB2flYyfb6ZwJOKov3DXlRgK)"><path d=" M 103.002 250 L 408.998 250 C 419.762 250 428.5 258.738 428.5 269.502 L 428.5 461.498 C 428.5 472.262 419.762 481 408.998 481 L 103.002 481 C 92.238 481 83.5 472.262 83.5 461.498 L 83.5 269.502 C 83.5 258.738 92.238 250 103.002 250 Z  M 135.5 294.5 L 376.5 294.5 L 376.5 436.5 L 135.5 436.5 L 135.5 294.5 Z " fill-rule="evenodd" fill="rgb(68,132,220)"/><line x1="256" y1="349" x2="256" y2="385" vector-effect="non-scaling-stroke" stroke-width="50" stroke="rgb(68,132,220)" stroke-linejoin="miter" stroke-linecap="round" stroke-miterlimit="3"/><circle vector-effect="non-scaling-stroke" cx="207.99999999999994" cy="196.99999999999997" r="25" fill="rgb(68,132,220)"/><circle vector-effect="non-scaling-stroke" cx="310" cy="196.99999999999997" r="25" fill="rgb(68,132,220)"/><defs><filter id="GYsDZoSe2eE1gXqy7aJWTJzWBBnvP2kz" x="-200%" y="-200%" width="400%" height="400%" filterUnits="objectBoundingBox" color-interpolation-filters="sRGB"><feGaussianBlur xmlns="http://www.w3.org/2000/svg" stdDeviation="0"/></filter></defs><g filter="url(#GYsDZoSe2eE1gXqy7aJWTJzWBBnvP2kz)"><path d=" M 150 146 C 166 94 201 70 255 69 C 309 68 348 97 360 146" fill="none" vector-effect="non-scaling-stroke" stroke-width="50" stroke="rgb(68,132,220)" stroke-linejoin="miter" stroke-linecap="round" stroke-miterlimit="3"/></g></g></svg>